<?xml version="1.0" standalone="no"?>
<!DOCTYPE svg PUBLIC "-//W3C//DTD SVG 20010904//EN"
 "http://www.w3.org/TR/2001/REC-SVG-20010904/DTD/svg10.dtd">
<svg version="1.0" xmlns="http://www.w3.org/2000/svg"
 width="300.000000pt" height="300.000000pt" viewBox="0 0 300.000000 300.000000"
 preserveAspectRatio="xMidYMid meet">
<metadata>
Created by potrace 1.13, written by Peter Selinger 2001-2015
</metadata>
<g transform="translate(0.000000,300.000000) scale(0.100000,-0.100000)"
fill="#000000" stroke="none">
<path d="M1545 2774 c-135 -19 -255 -55 -332 -99 -39 -23 -56 -26 -156 -29
-88 -2 -123 -7 -165 -24 -179 -74 -350 -269 -417 -477 -21 -63 -33 -86 -52
-96 -40 -21 -112 -108 -145 -172 -69 -138 -77 -352 -17 -524 l18 -54 -73 -239
c-40 -132 -71 -242 -68 -245 3 -3 70 -5 148 -5 136 0 143 -1 149 -21 12 -36
157 -173 237 -223 42 -26 117 -62 165 -79 80 -29 95 -39 158 -103 112 -113
220 -154 410 -154 137 0 243 24 370 85 80 39 96 43 142 38 73 -8 175 13 251
50 120 58 274 225 336 365 l19 42 174 0 c121 0 173 3 173 11 0 13 -97 327
-105 339 -3 5 2 39 11 77 12 51 15 100 11 193 -3 107 -9 139 -36 220 -18 52
-45 117 -60 145 -25 44 -29 60 -29 135 0 160 -57 278 -199 410 -87 82 -201
149 -314 185 -55 17 -74 29 -99 61 -61 78 -149 135 -258 167 -54 17 -195 28
-247 21z m260 -84 c63 -22 147 -77 164 -107 9 -17 0 -18 -152 -15 -107 2 -211
-2 -305 -13 -78 -9 -158 -17 -177 -18 -33 -1 -34 -2 -17 -20 9 -11 40 -31 67
-45 55 -29 67 -30 505 -23 173 3 204 1 275 -18 128 -34 200 -74 287 -161 93
-93 137 -176 145 -273 l5 -62 -55 60 c-37 40 -59 74 -66 103 -11 40 -13 42
-48 42 -28 0 -47 10 -87 43 -80 67 -235 187 -242 187 -11 0 8 -84 27 -122 11
-21 19 -39 19 -40 0 -2 -93 -3 -207 -3 -225 0 -271 -7 -380 -55 l-61 -28 -49
24 c-100 49 -163 59 -375 59 -174 0 -195 2 -184 15 173 210 306 342 400 399
65 39 160 79 219 91 68 15 224 4 292 -20z m-782 -149 c-32 -27 -77 -68 -100
-92 -54 -58 -222 -260 -221 -268 4 -38 -2 -41 -71 -41 l-70 0 15 53 c63 213
272 394 457 396 l48 1 -58 -49z m341 -380 c33 -11 74 -32 91 -45 l32 -25 -5
-558 c-2 -307 -6 -560 -8 -562 -1 -1 -20 11 -42 29 -22 17 -67 40 -100 50
-123 38 -241 36 -557 -10 -154 -22 -307 -35 -328 -27 -13 5 -10 21 19 99 108
287 213 697 245 951 7 51 15 95 18 99 12 14 226 26 401 24 149 -3 184 -6 234
-25z m853 13 l61 -7 7 -51 c33 -265 117 -607 229 -933 31 -89 56 -165 56 -169
0 -10 -179 3 -332 25 -259 38 -368 45 -464 32 -94 -13 -157 -36 -210 -76 l-31
-24 -6 82 c-5 59 -10 848 -7 1034 0 19 88 66 160 86 56 15 94 17 270 12 113
-3 233 -8 267 -11z m-1522 -116 c-27 -241 -139 -642 -270 -969 -25 -61 -45
-113 -45 -115 0 -10 86 -3 206 17 375 60 446 69 548 69 121 0 207 -18 274 -56
59 -35 52 -38 -15 -6 -56 26 -64 27 -218 26 -151 -1 -172 -4 -380 -48 -209
-45 -417 -69 -458 -53 -12 4 3 55 75 259 136 386 209 643 238 843 14 91 15 95
37 95 13 0 14 -10 8 -62z m1649 35 c3 -16 10 -59 16 -98 28 -182 110 -466 250
-861 39 -108 70 -200 70 -205 0 -5 -44 -9 -97 -9 -97 1 -187 15 -468 76 -110
23 -154 28 -290 28 -154 1 -162 0 -215 -26 -38 -19 -48 -21 -32 -8 51 42 131
63 262 67 128 5 133 4 585 -67 71 -12 146 -20 166 -18 l36 3 -52 130 c-112
281 -195 559 -239 803 -38 211 -38 212 -16 212 12 0 20 -9 24 -27z m-1694 2
c0 -3 -14 -73 -31 -156 -48 -238 -127 -485 -293 -912 -25 -65 -46 -122 -46
-127 0 -30 175 -18 410 30 283 57 382 71 510 71 139 1 208 -16 273 -65 33 -25
34 -26 51 -7 29 32 114 62 195 70 115 11 260 -4 519 -55 347 -67 504 -79 487
-36 -43 105 -211 563 -239 649 -57 178 -126 464 -126 524 0 29 48 26 54 -3 61
-287 140 -555 284 -966 65 -187 82 -246 73 -255 -8 -8 -56 -12 -149 -11 -141
1 -145 2 -497 79 -128 28 -344 43 -428 31 l-47 -7 0 -50 c0 -37 -4 -49 -15
-49 -11 0 -15 12 -15 45 0 25 -2 45 -4 45 -12 0 -95 -40 -100 -48 -3 -5 -31 4
-63 20 -32 16 -59 25 -60 21 -1 -4 -4 -25 -8 -45 -4 -25 -11 -38 -22 -38 -13
0 -14 8 -9 49 l7 50 -47 7 c-86 13 -301 -3 -429 -31 -249 -54 -352 -74 -432
-80 -83 -8 -198 0 -221 14 -9 6 -4 32 24 107 139 380 278 834 324 1059 7 33
14 63 17 68 5 8 53 10 53 2z m-224 -232 c-6 -88 -16 -139 -57 -272 -27 -91
-51 -166 -53 -168 -11 -11 -29 73 -33 154 -9 154 26 273 105 356 20 20 38 37
40 37 3 0 2 -48 -2 -107z m2238 -203 c52 -99 67 -163 64 -270 l-3 -92 -69 229
c-38 125 -71 235 -73 243 -9 30 48 -47 81 -110z m-1884 -931 c58 -44 111 -88
118 -97 26 -34 13 63 -16 122 l-29 56 259 0 c253 0 260 -1 289 -22 25 -19 44
-23 99 -23 55 0 74 4 99 23 29 21 36 22 293 22 211 0 259 -2 247 -12 -9 -7
-54 -58 -101 -113 -152 -178 -267 -279 -383 -337 -197 -99 -443 -82 -576 40
l-51 47 214 1 c149 0 247 6 326 18 63 10 120 15 128 12 8 -3 14 -1 14 5 0 14
-89 68 -135 80 -49 14 -176 14 -352 1 -333 -26 -564 46 -701 218 l-33 40 94 0
93 0 104 -81z m1642 39 c-31 -82 -81 -155 -150 -220 -75 -71 -152 -113 -233
-128 -108 -21 -108 -20 24 113 67 67 149 157 182 200 l60 77 67 0 66 0 -16
-42z"/>
<path d="M947 2096 c-65 -7 -122 -17 -127 -22 -10 -11 -34 -174 -26 -182 3 -3
59 1 123 9 65 7 177 13 248 13 107 0 139 -4 183 -21 l52 -21 0 99 0 99 -37 16
c-50 22 -256 27 -416 10z"/>
<path d="M1040 1860 c-41 -4 -118 -11 -171 -15 l-96 -8 -17 -82 c-9 -46 -19
-91 -23 -100 -6 -16 1 -17 78 -11 46 4 122 12 167 17 121 16 294 7 365 -18
l57 -20 0 97 0 98 -40 16 c-80 32 -177 40 -320 26z"/>
<path d="M881 1603 c-85 -7 -156 -15 -158 -16 -1 -2 -13 -44 -27 -95 l-25 -92
45 0 c25 0 125 7 222 16 197 18 308 11 405 -26 29 -11 53 -20 55 -20 1 0 2 45
2 99 l0 99 -38 15 c-98 39 -215 44 -481 20z"/>
<path d="M830 1355 c-74 -7 -145 -14 -156 -14 -17 -1 -25 -13 -38 -58 -10 -32
-24 -76 -32 -97 -7 -22 -12 -42 -9 -44 2 -3 53 1 112 7 331 36 524 32 633 -13
l60 -24 0 100 0 99 -43 19 c-93 41 -267 49 -527 25z"/>
<path d="M1700 2104 c-8 -3 -34 -12 -57 -20 l-43 -16 0 -92 c0 -51 2 -95 6
-98 3 -3 28 4 57 15 65 26 230 29 419 8 71 -8 130 -13 132 -10 5 5 -19 178
-26 184 -19 19 -442 44 -488 29z"/>
<path d="M1738 1859 c-31 -4 -73 -15 -92 -23 l-36 -15 0 -99 0 -98 72 24 c67
22 84 24 213 19 77 -2 191 -10 253 -17 62 -7 116 -10 119 -6 5 5 -13 101 -33
177 -3 12 -41 18 -202 32 -212 19 -209 19 -294 6z"/>
<path d="M1725 1606 c-33 -7 -72 -19 -87 -26 -28 -13 -28 -14 -28 -113 0 -91
2 -99 18 -92 120 52 218 61 434 41 97 -9 198 -16 223 -16 44 0 47 2 41 23 -3
12 -13 55 -22 95 -12 54 -20 72 -33 72 -9 0 -88 7 -176 15 -189 17 -288 18
-370 1z"/>
<path d="M1765 1363 c-16 -2 -58 -13 -92 -24 l-63 -21 0 -103 0 -103 40 19
c106 51 323 55 704 13 58 -7 59 -7 53 17 -15 61 -48 164 -54 170 -21 21 -484
46 -588 32z"/>
</g>
</svg>
